<svg xmlns="http://www.w3.org/2000/svg" width="900" height="420" viewBox="0 0 900 420" role="img" aria-label="EZ Sync Architecture">
  <rect x="20" y="20" width="200" height="100" fill="#ffffff" stroke="#333333" stroke-width="2" rx="8" ry="8"/>
  <text x="120" y="45" text-anchor="middle" font-family="sans-serif" font-size="14" font-weight="700" fill="#111111">Frontend</text>
  <text x="120" y="65" text-anchor="middle" font-family="sans-serif" font-size="12" fill="#222222">Vue.js App</text>
  <text x="120" y="85" text-anchor="middle" font-family="sans-serif" font-size="12" fill="#222222">Port: 5173</text>

  <rect x="320" y="20" width="200" height="100" fill="#ffffff" stroke="#333333" stroke-width="2" rx="8" ry="8"/>
  <text x="420" y="45" text-anchor="middle" font-family="sans-serif" font-size="14" font-weight="700" fill="#111111">Backend API</text>
  <text x="420" y="65" text-anchor="middle" font-family="sans-serif" font-size="12" fill="#222222">FastAPI</text>
  <text x="420" y="85" text-anchor="middle" font-family="sans-serif" font-size="12" fill="#222222">Port: 8000</text>

  <rect x="620" y="20" width="200" height="100" fill="#ffffff" stroke="#333333" stroke-width="2" rx="8" ry="8"/>
  <text x="720" y="45" text-anchor="middle" font-family="sans-serif" font-size="14" font-weight="700" fill="#111111">MariaDB</text>
  <text x="720" y="65" text-anchor="middle" font-family="sans-serif" font-size="12" fill="#222222">Users and Login</text>
  <text x="720" y="85" text-anchor="middle" font-family="sans-serif" font-size="12" fill="#222222">Port: 3306</text>

  <path d="M120 140 H720" stroke="#666666" stroke-width="2" fill="none"/>

  <path d="M120 120 V140" stroke="#666666" stroke-width="2" fill="none"/>
  <path d="M420 120 V140" stroke="#666666" stroke-width="2" fill="none"/>
  <path d="M720 120 V140" stroke="#666666" stroke-width="2" fill="none"/>

  <rect x="320" y="170" width="200" height="100" fill="#ffffff" stroke="#333333" stroke-width="2" rx="8" ry="8"/>
  <text x="420" y="195" text-anchor="middle" font-family="sans-serif" font-size="14" font-weight="700" fill="#111111">Fetchie</text>
  <text x="420" y="215" text-anchor="middle" font-family="sans-serif" font-size="12" fill="#222222">Job Scraper</text>
  <text x="420" y="235" text-anchor="middle" font-family="sans-serif" font-size="12" fill="#222222">Selenium Bot</text>

  <rect x="620" y="170" width="200" height="100" fill="#ffffff" stroke="#333333" stroke-width="2" rx="8" ry="8"/>
  <text x="720" y="195" text-anchor="middle" font-family="sans-serif" font-size="14" font-weight="700" fill="#111111">MongoDB</text>
  <text x="720" y="215" text-anchor="middle" font-family="sans-serif" font-size="12" fill="#222222">Jobs &amp; Data</text>
  <text x="720" y="235" text-anchor="middle" font-family="sans-serif" font-size="12" fill="#222222">Port: 27017</text>

  <rect x="320" y="290" width="200" height="70" fill="#ffffff" stroke="#333333" stroke-width="2" rx="8" ry="8"/>
  <text x="420" y="315" text-anchor="middle" font-family="sans-serif" font-size="14" font-weight="700" fill="#111111">Mongo Express</text>
  <text x="420" y="335" text-anchor="middle" font-family="sans-serif" font-size="12" fill="#222222">Admin Panel &#183; Port: 8081</text>

  <path d="M220 70 H310" stroke="#333333" stroke-width="2" fill="none"/>
  <polygon points="310,65 320,70 310,75" fill="#333333"/>

  <path d="M520 70 H610" stroke="#333333" stroke-width="2" fill="none"/>
  <polygon points="610,65 620,70 610,75" fill="#333333"/>

  <path d="M420 150 V170" stroke="#333333" stroke-width="2" fill="none"/>
  <polygon points="415,170 425,170 420,180" fill="#333333"/>

  <path d="M520 220 H610" stroke="#333333" stroke-width="2" fill="none"/>
  <polygon points="610,215 620,220 610,225" fill="#333333"/>

  <path d="M420 270 V290" stroke="#333333" stroke-width="2" fill="none"/>
  <polygon points="415,290 425,290 420,300" fill="#333333"/>
</svg>
